Coordinates
version=1
nRows=17
nColumns=38
inDegrees=yes

Units are S.I. units (second, meters, Newtons, ...)
Angles are in degrees.

endheader
time	pelvis_tilt	pelvis_list	pelvis_rotation	pelvis_tx	pelvis_ty	pelvis_tz	hip_flexion_r	hip_adduction_r	hip_rotation_r	knee_angle_r	ankle_angle_r	subtalar_angle_r	mtp_angle_r	hip_flexion_l	hip_adduction_l	hip_rotation_l	knee_angle_l	ankle_angle_l	subtalar_angle_l	mtp_angle_l	lumbar_extension	lumbar_bending	lumbar_rotation	arm_flex_r	arm_add_r	arm_rot_r	elbow_flex_r	pro_sup_r	wrist_flex_r	wrist_dev_r	arm_flex_l	arm_add_l	arm_rot_l	elbow_flex_l	pro_sup_l	wrist_flex_l	wrist_dev_l
      0.13200000	      1.28896937	      5.93997619	    -15.34392866	     -1.11199676	      0.96559369	      0.32255208	    -11.27708148	     -9.74952215	      6.79093565	    -31.48153481	     -0.06157243	    -20.32237084	     11.52029612	     74.27014030	     -8.53679399	    -12.48633826	   -123.56392913	     -1.71456880	     -5.35132728	     10.79599946	     -9.51962526	    -11.80343930	      8.23938796	     37.09785739	     -3.54513894	     25.85742049	    119.00339627	     65.13422188	    -14.27547888	     14.48259210	    -70.68986786	     -5.86292962	    -36.21375486	     53.90108157	     77.80557743	      3.87969839	     22.12662393
      0.13600000	      0.55546158	      6.81826741	    -13.47938492	     -1.06891574	      0.96533991	      0.32055957	    -13.78620565	    -10.62318529	      4.82811575	    -29.52847217	     -6.13479438	    -21.59306609	     12.79087643	     76.79314985	     -6.06595096	    -11.70204246	   -120.42691607	     -1.86008509	     -5.44504338	     10.74974267	     -7.93128633	    -12.56953154	      7.19027878	     38.80998845	     -4.35414766	     27.60782177	    121.10165153	     64.56106566	    -14.61633782	     14.61317360	    -73.17407397	     -5.26078558	    -38.21626189	     55.43583361	     76.45411514	      4.37332016	     22.35856633
      0.14000000	     -0.19034865	      7.53828267	    -11.32707065	     -1.02573428	      0.96516849	      0.31803586	    -16.39959547	    -11.13389531	      2.57055953	    -27.36171689	    -12.83114410	    -22.30546588	     14.76761519	     79.04258114	     -3.44481190	    -10.92137758	   -117.12267920	     -2.14666271	     -5.74734570	     10.81488014	     -6.44990621	    -13.20364428	      5.82015155	     40.46570104	     -5.16287703	     29.50133529	    122.95705315	     63.28737885	    -15.26816940	     14.73838585	    -75.51903538	     -4.66052819	    -40.01334634	     56.87496283	     74.46876007	      5.09441102	     22.72973252
      0.14400000	     -1.28929597	      8.41666101	     -9.23612803	     -0.98305576	      0.96465972	      0.31507618	    -18.05952641	    -11.74087585	     -0.01529675	    -25.99670074	    -19.07167398	    -21.73972420	     13.72393458	     81.33472361	     -0.86685229	    -10.45909658	   -113.54446304	     -2.45003506	     -6.28963550	     10.63891492	     -4.67376421	    -13.93504376	      4.44899117	     42.08783644	     -5.45277029	     30.32587317	    125.04724849	     63.33962267	    -15.39095657	     14.75076857	    -77.54312985	     -4.03089245	    -40.91020727	     57.34619375	     74.08819026	      5.22087085	     22.79119162
      0.14800000	     -2.09560743	      9.05954923	     -7.51022549	     -0.94149712	      0.96459001	      0.31225516	    -19.60948902	    -12.07372599	     -1.65656159	    -25.08772640	    -24.98493442	    -21.43688518	     11.46993651	     83.03816532	      1.19144151	    -10.14053734	   -109.78799817	     -3.07519110	     -7.88459341	     10.04610754	     -3.42740545	    -14.62873665	      3.37473274	     44.00044108	     -6.31795020	     32.48627894	    127.56094426	     63.00859615	    -15.72592657	     14.78581262	    -79.28549875	     -3.06101192	    -42.99419109	     59.02420908	     73.13635938	      5.50630786	     22.90718564
      0.15200000	     -3.02479822	      9.37482989	     -5.60232127	     -0.89995379	      0.96481836	      0.30998927	    -20.65837035	    -11.88725967	     -3.33427103	    -24.78486535	    -29.38387477	    -20.31452299	      4.14163522	     84.42745883	      3.28482428	     -9.46322004	   -105.82474374	     -3.05989776	     -9.33880358	      8.88534559	     -2.17858042	    -15.13573169	      2.49352562	     45.42691194	     -7.42244286	     33.99021011	    130.10417286	     61.87198990	    -16.50328042	     14.82249819	    -80.76967707	     -2.54755317	    -45.12088898	     60.71733143	     71.10266740	      6.05975596	     23.13549297
      0.15600000	     -4.28764746	      9.54742843	     -3.73528940	     -0.85825508	      0.96516663	      0.30869606	    -21.16531452	    -11.34459260	     -4.44033138	    -24.58856204	    -34.41534604	    -20.27007452	     -1.89504788	     85.71616134	      4.99229495	     -8.72644499	   -101.63537963	     -3.10284487	    -10.31214130	      8.02174650	     -0.58013293	    -15.54346956	      1.45765605	     46.33846554	     -7.62052162	     34.30614209	    132.61208014	     61.10388909	    -17.33049708	     14.86151504	    -82.04726604	     -2.03185784	    -46.22275569	     61.61924704	     69.09503109	      6.57365917	     23.36471475
      0.16000000	     -5.15042901	      9.29538515	     -1.73423981	     -0.81780114	      0.96560874	      0.30684785	    -21.78042725	    -10.29225664	     -5.38807961	    -24.79377366	    -39.06312969	    -18.99665585	     -3.64479118	     86.43153679	      6.93795150	     -7.50937432	    -97.33439104	     -3.35188245	    -10.78434818	      7.61336884	      0.27634399	    -15.45166475	     -0.19324010	     47.69517522	     -7.98917281	     35.10203884	    134.42713402	     61.19494019	    -17.50613747	     14.86982988	    -82.85801648	     -1.20398700	    -47.01610687	     62.08342262	     68.49316182	      6.68369333	     23.40868352
      0.16400000	     -5.83217112	      8.70000881	      0.14731810	     -0.77690080	      0.96701391	      0.30606021	    -22.31004882	     -8.62504707	     -5.44363516	    -25.50657722	    -41.74152717	    -16.93425325	     -3.66862292	     86.50308944	      8.46394541	     -6.15448913	    -92.85671255	     -3.62810333	    -11.25790202	      7.14082952	      0.95376617	    -15.19806908	     -1.56811294	     48.17186313	     -8.25112465	     35.28716571	    136.55178727	     61.38536290	    -17.67100490	     14.88023098	    -83.34524649	     -0.64698610	    -48.32008080	     62.60268748	     67.70106185	      6.78728074	     23.43498318
      0.16800000	     -6.22107227	      8.63910789	      0.27285898	     -0.73829129	      0.96905419	      0.30607569	    -21.99468155	     -8.38092702	     -4.22570808	    -27.64874004	    -41.34943795	    -12.38902505	     -1.47009078	     85.94643713	      8.59172572	     -5.36039971	    -88.05700042	     -3.84345711	    -11.78151412	      6.21259911	      1.35523615	    -15.39145322	     -1.27534268	     48.56103227	     -8.75775312	     35.09438619	    138.82612472	     61.44732879	    -18.05143009	     14.94234489	    -82.95016766	      0.07707586	    -50.37715078	     63.48047723	     65.72853987	      7.03249100	     23.49903822
      0.17200000	     -6.35983044	      7.80462241	      1.18806373	     -0.69995030	      0.97109456	      0.30649206	    -21.98452055	     -6.78065400	     -3.43796435	    -29.93593670	    -39.50634902	     -9.44558608	     -0.61338558	     84.95736876	      9.18692490	     -3.66431142	    -83.22763449	     -4.31077746	    -11.47741397	      5.96490792	      1.24034728	    -14.79572585	     -2.15609658	     48.74532329	     -8.79290045	     34.28543189	    140.08576581	     61.61256309	    -18.13007642	     14.95465007	    -82.57458230	      0.58977180	    -50.71230056	     63.76150778	     65.19984552	      7.09337888	     23.51313699
      0.17600000	     -6.49964373	      7.64227727	      1.56704521	     -0.66158539	      0.97367905	      0.30674656	    -21.53669624	     -6.29804551	     -3.04599541	    -32.87600930	    -36.83257966	     -4.99082574	      0.92831800	     83.56613169	      9.39744930	     -2.71387952	    -78.08384089	     -4.61490026	    -10.73315179	      5.66679453	      1.12630954	    -14.92465356	     -2.18681476	     48.10187821	     -9.12462665	     33.36187048	    142.04608201	     61.71681750	    -18.21733170	     14.98547974	    -81.67180454	      0.83397492	    -51.43786806	     64.06418867	     64.45019774	      7.18409605	     23.52333119
      0.18000000	     -6.59990914	      7.52077594	      2.21674864	     -0.62337023	      0.97636708	      0.30654033	    -20.92856235	     -5.82416365	     -3.50037774	    -36.12584332	    -34.93270366	     -2.57200317	      1.68472795	     81.88113401	      9.92103939	     -1.71521484	    -72.70485991	     -5.27496708	    -10.39459465	      5.34389845	      0.84436970	    -15.11725790	     -2.46781601	     47.21225583	     -9.81579354	     32.81741767	    143.71975855	     61.57276214	    -18.27250362	     15.01869290	    -80.53726424	      0.82731009	    -52.17753295	     64.18170521	     63.79934938	      7.27235010	     23.52715648
      0.18400000	     -6.69213249	      7.37287861	      2.56262204	     -0.58522014	      0.97914838	      0.30694817	    -19.95666205	     -5.57124493	     -4.16342962	    -39.85709163	    -34.36132215	     -1.93040130	      2.00164958	     79.90859236	     10.06099217	     -0.64078106	    -67.21469090	     -5.62240246	     -9.48852264	      4.89823641	      0.45035412	    -15.44384862	     -2.25221471	     45.83638871	    -10.61219011	     31.77600024	    146.15505652	     60.72067708	    -18.36163310	     15.08487714	    -79.02157482	      0.71912340	    -53.73580601	     64.55754334	     62.48692699	      7.46896941	     23.53394097
      0.18800000	     -6.42429097	      7.22832792	      3.07713707	     -0.54674367	      0.98195344	      0.30733273	    -19.41594690	     -5.26191761	     -5.25829741	    -43.60822906	    -34.52797292	     -3.11075224	      1.92732363	     77.41974418	     10.27744457	      0.39831578	    -61.74681758	     -6.15256209	     -8.28401959	      4.84186427	     -0.26706931	    -15.63039652	     -2.43497724	     44.37271910	    -11.48179365	     32.01882146	    147.36676147	     60.22438754	    -18.39457214	     15.11035311	    -77.63858141	      0.48366540	    -53.70269037	     64.90524271	     62.08739790	      7.56075622	     23.54377220
      0.19200000	     -5.83171787	      6.87084047	      3.33607704	     -0.50847870	      0.98461632	      0.30764728	    -18.97974953	     -4.96209537	     -6.30811819	    -47.66535763	    -35.44719701	     -5.68829937	      1.20421772	     74.52700630	     10.27239697	      1.71008577	    -56.37568466	     -6.73167912	     -7.70976706	      5.56196517	     -1.45656842	    -15.65563287	     -2.15680015	     42.71254805	    -12.79749579	     31.37015323	    149.61921688	     57.65754869	    -18.61189405	     15.14065818	    -76.09840147	      0.27815478	    -54.14401771	     66.45476259	     60.86140146	      7.91630008	     23.59653305
      0.19600000	     -5.37907891	      6.80185982	      3.48244779	     -0.47011133	      0.98708355	      0.30769598	    -18.26619769	     -5.21849465	     -7.54937483	    -51.93569260	    -37.04828224	     -9.56316234	      0.22461355	     71.66376178	     10.28941028	      2.90283334	    -51.08753869	     -6.99103676	     -6.96378857	      5.58890197	     -2.42669031	    -15.87113670	     -1.92681534	     40.74715819	    -13.86597544	     31.78359667	    150.00035077	     57.05127560	    -18.68018390	     15.13794285	    -74.41779749	     -0.11930826	    -53.83833160	     66.98624269	     60.64010207	      8.00819629	     23.62275729
